<svg
   viewBox="0 0 10 16"
   version="1.1"
   width="10"
   height="16"
   xmlns="http://www.w3.org/2000/svg"
   xmlns:svg="http://www.w3.org/2000/svg">
  <path
     fill="#5c5c5c"
     d="m 4,14 c 0,1.1 -0.9,2 -2,2 -1.10000002,0 -2,-0.9 -2,-2 0,-1.1 0.89999998,-2 2,-2 1.1,0 2,0.9 2,2 z M 2,6 C 0.89999998,6 0,6.9 0,8 0,9.1 0.89999998,10 2,10 3.1,10 4,9.1 4,8 4,6.9 3.1,6 2,6 Z M 2,0 C 0.89999998,0 0,0.9 0,2 0,3.1 0.89999998,4 2,4 3.1,4 4,3.1 4,2 4,0.9 3.1,0 2,0 Z M 8,4 C 9.1,4 9.9999996,3.1 9.9999996,2 9.9999996,0.9 9.1,0 8,0 6.9,0 6,0.9 6,2 6,3.1 6.9,4 8,4 Z M 8,6 C 6.9,6 6,6.9 6,8 6,9.1 6.9,10 8,10 9.1,10 9.9999996,9.1 9.9999996,8 9.9999996,6.9 9.1,6 8,6 Z m 0,6 c -1.1,0 -2,0.9 -2,2 0,1.1 0.9,2 2,2 1.1,0 1.9999996,-0.9 1.9999996,-2 C 9.9999996,12.9 9.1,12 8,12 Z"
     class="color000000 svgShape"
     id="path4" />
</svg>
